HIERARCHY
ROOT Hips
{
	OFFSET 0.000000 0.000000 0.000000
	CHANNELS 6 Xposition Yposition Zposition Xrotation Yrotation Zrotation
	JOINT LeftUpLeg_virtual
	{
		OFFSET 0.000000 0.000000 0.000000
		CHANNELS 3 Xrotation Yrotation Zrotation
		JOINT LeftUpLeg
		{
			OFFSET 11.394100 -6.187798 -0.413800
			CHANNELS 3 Xrotation Yrotation Zrotation
			JOINT LeftLeg
			{
				OFFSET 0.430247 -32.302673 3.732800
				CHANNELS 3 Xrotation Yrotation Zrotation
				JOINT LeftFoot
				{
					OFFSET -0.430247 -48.264931 -6.423300
					CHANNELS 3 Xrotation Yrotation Zrotation
					JOINT LeftToeBase
					{
						OFFSET 4.230900 -16.068199 23.438400
						CHANNELS 3 Xrotation Yrotation Zrotation
						JOINT LeftToe_End
						{
							OFFSET 4.510700 0.695400 19.974600
							CHANNELS 3 Xrotation Yrotation Zrotation
							End Site
							{
								OFFSET 0 0 0
							}
						}
					}
				}
			}
		}
	}
	JOINT RightUpLeg_virtual
	{
		OFFSET 0.000000 0.000000 0.000000
		CHANNELS 3 Xrotation Yrotation Zrotation
		JOINT RightUpLeg
		{
			OFFSET -11.333700 -6.187798 -0.413800
			CHANNELS 3 Xrotation Yrotation Zrotation
			JOINT RightLeg
			{
				OFFSET -0.430392 -32.302628 3.733000
				CHANNELS 3 Xrotation Yrotation Zrotation
				JOINT RightFoot
				{
					OFFSET 0.430392 -48.264973 -6.423500
					CHANNELS 3 Xrotation Yrotation Zrotation
					JOINT RightToeBase
					{
						OFFSET -4.230900 -16.068199 23.438400
						CHANNELS 3 Xrotation Yrotation Zrotation
						JOINT RightToe_End
						{
							OFFSET -4.510700 0.695400 19.974600
							CHANNELS 3 Xrotation Yrotation Zrotation
							End Site
							{
								OFFSET 0 0 0
							}
						}
					}
				}
			}
		}
	}
	JOINT Spine_virtual
	{
		OFFSET 0.000000 0.000000 0.000000
		CHANNELS 3 Xrotation Yrotation Zrotation
		JOINT Spine
		{
			OFFSET -0.002400 12.777504 0.315300
			CHANNELS 3 Xrotation Yrotation Zrotation
			JOINT Spine1
			{
				OFFSET -0.002067 5.816869 0.032633
				CHANNELS 3 Xrotation Yrotation Zrotation
				JOINT Spine1_split
				{
					OFFSET -0.002067 5.816869 0.032633
					CHANNELS 3 Xrotation Yrotation Zrotation
					JOINT Spine2
					{
						OFFSET -0.002067 5.816869 0.032633
						CHANNELS 3 Xrotation Yrotation Zrotation
						JOINT Neck_virtual
						{
							OFFSET 0.000000 0.000000 0.000000
							CHANNELS 3 Xrotation Yrotation Zrotation
							JOINT Neck
							{
								OFFSET -0.003700 21.199493 -0.826900
								CHANNELS 3 Xrotation Yrotation Zrotation
								JOINT Head
								{
									OFFSET 0.000000 20.442200 4.834800
									CHANNELS 3 Xrotation Yrotation Zrotation
									JOINT HeadTop_End
									{
										OFFSET 0.000000 34.668396 4.968400
										CHANNELS 3 Xrotation Yrotation Zrotation
										End Site
										{
											OFFSET 0 0 0
										}
									}
								}
							}
						}
						JOINT LeftShoulder_virtual
						{
							OFFSET 0.000000 0.000000 0.000000
							CHANNELS 3 Xrotation Yrotation Zrotation
							JOINT LeftShoulder
							{
								OFFSET 3.288150 8.794197 -1.372250
								CHANNELS 3 Xrotation Yrotation Zrotation
								JOINT LeftShoulder_split
								{
									OFFSET 3.288150 8.794197 -1.372250
									CHANNELS 3 Xrotation Yrotation Zrotation
									JOINT LeftArm
									{
										OFFSET 11.953299 -2.279007 -0.146200
										CHANNELS 3 Xrotation Yrotation Zrotation
										JOINT LeftForeArm
										{
											OFFSET 18.448900 0.000000 0.000000
											CHANNELS 3 Xrotation Yrotation Zrotation
											JOINT LeftHand
											{
												OFFSET 29.527798 0.000000 0.000000
												CHANNELS 3 Xrotation Yrotation Zrotation
												End Site
												{
													OFFSET 0 0 0
												}
											}
										}
									}
								}
							}
						}
						JOINT RightShoulder_virtual
						{
							OFFSET 0.000000 0.000000 0.000000
							CHANNELS 3 Xrotation Yrotation Zrotation
							JOINT RightShoulder
							{
								OFFSET -3.249400 8.794197 -1.372250
								CHANNELS 3 Xrotation Yrotation Zrotation
								JOINT RightShoulder_split
								{
									OFFSET -3.249400 8.794197 -1.372250
									CHANNELS 3 Xrotation Yrotation Zrotation
									JOINT RightArm
									{
										OFFSET -11.953299 -2.279007 -0.146200
										CHANNELS 3 Xrotation Yrotation Zrotation
										JOINT RightForeArm
										{
											OFFSET -18.448900 0.000000 0.000000
											CHANNELS 3 Xrotation Yrotation Zrotation
											JOINT RightHand
											{
												OFFSET -29.527802 0.000000 0.000000
												CHANNELS 3 Xrotation Yrotation Zrotation
												End Site
												{
													OFFSET 0 0 0
												}
											}
										}
									}
								}
							}
						}
					}
				}
			}
		}
	}
}
MOTION
Frames: 7
Frame Time: 0.03333333
-22.998375 104.538902 -14.719097 0.000000 0.000000 0.000000 -173.636167 -52.653245 -168.139422 -115.710166 -19.017999 0.633159 83.700533 5.438501 -30.592755 51.563226 -9.815609 -13.437217 -4.263157 0.135977 -1.163413 0.000000 0.000000 0.000000 -174.242292 -49.541555 -169.158924 -34.925226 32.949840 7.606077 39.417759 7.319850 -5.440266 5.371813 14.578373 0.532921 -1.607325 1.675764 3.556229 0.000000 0.000000 0.000000 -170.796489 -52.520507 -164.277087 18.661347 2.750714 0.564850 7.076714 0.091537 -0.029115 0.892072 -2.722595 0.841134 0.000000 0.000000 0.000000 10.554620 0.288538 -0.656072 4.683473 38.498621 5.780850 9.448245 47.425446 -31.377595 0.000000 0.000000 0.000000 9.620687 -0.206319 -0.518445 -2.507915 -13.068632 11.144366 3.168859 0.745266 -1.784006 -55.507708 -48.227675 -41.578964 -96.453452 -26.327927 -90.597378 0.000000 0.000000 0.000000 8.023606 -0.322098 -0.562494 -4.079269 20.458648 4.249732 4.081476 -1.736646 3.919350 -54.632269 15.175195 25.619409 128.576057 41.616134 -124.024692 0.000000 0.000000 0.000000 
-24.901203 105.795525 -16.435257 0.000000 0.000000 0.000000 -172.397349 -49.508572 -166.054808 -121.121548 -16.512329 2.513327 81.569862 3.744472 -29.108992 50.119515 -13.486883 -17.202173 -10.414117 -0.185232 1.205104 0.000000 0.000000 0.000000 -173.318905 -44.950916 -167.374400 -32.060112 34.985977 7.461426 38.999489 7.358697 -5.182833 4.113743 15.482741 -0.417223 -3.832454 1.585766 3.550800 0.000000 0.000000 0.000000 -170.821952 -49.172895 -163.978922 19.331582 3.425103 0.603896 7.601696 0.351644 -0.369696 0.603807 -2.599018 0.884014 0.000000 0.000000 0.000000 11.207509 0.501217 -1.133511 6.071927 38.917943 5.138689 8.707862 48.409434 -31.695107 0.000000 0.000000 0.000000 10.318065 0.018336 -0.832442 -1.996399 -12.666254 15.743286 3.300962 0.156911 -1.722296 -66.670726 -45.027442 -47.006503 -95.973857 -27.871798 -90.366148 0.000000 0.000000 0.000000 8.574189 -0.181248 -0.945595 -3.034431 21.071837 0.152479 4.351063 -1.964818 3.909295 -61.616865 14.078375 25.005106 130.435043 41.259865 -126.645053 0.000000 0.000000 0.000000 
-26.423775 107.036499 -17.937069 0.000000 0.000000 0.000000 -171.309832 -46.945953 -163.896031 -126.091562 -15.220604 3.746257 81.470285 0.973790 -27.519153 50.130399 -16.928284 -19.736209 -14.308083 -0.709482 3.414738 0.000000 0.000000 0.000000 -172.690719 -41.368035 -165.850749 -28.735156 36.744246 6.534316 38.438399 7.263881 -4.728447 3.101018 16.090618 -0.982523 -6.032897 1.461012 3.624014 0.000000 0.000000 0.000000 -170.768717 -46.440396 -163.426196 19.865293 3.939464 0.635863 8.011869 0.494388 -0.695347 0.489138 -2.633384 0.973929 0.000000 0.000000 0.000000 11.719418 0.591597 -1.567872 7.501604 39.249928 4.268097 8.089777 49.247894 -32.115741 0.000000 0.000000 0.000000 10.906759 0.134722 -1.134559 -1.552808 -12.324458 20.213789 3.682298 -0.321912 -1.737874 -75.163076 -41.156555 -51.107874 -95.476455 -29.339327 -89.940334 0.000000 0.000000 0.000000 8.990783 -0.140541 -1.291079 -1.948596 21.564307 -4.012543 4.634951 -2.285713 3.759707 -67.610595 12.267253 23.343659 132.203530 41.337794 -129.007329 0.000000 0.000000 0.000000 
-27.521734 107.929207 -19.089680 0.000000 0.000000 0.000000 -170.425965 -45.206433 -161.889513 -129.831583 -14.726257 3.917754 82.330513 -0.767719 -26.641908 49.982044 -17.898314 -20.641107 -13.667311 -0.805859 4.172631 0.000000 0.000000 0.000000 -172.304950 -38.914545 -164.510816 -25.477796 38.156859 5.011906 38.039280 7.131817 -4.087333 2.161544 16.398939 -1.076514 -7.608301 1.360051 3.698056 0.000000 0.000000 0.000000 -170.554168 -44.440817 -162.396886 20.314576 4.283871 0.607762 8.308531 0.509884 -0.971043 0.344343 -2.800105 0.951140 0.000000 0.000000 0.000000 12.097650 0.572382 -1.921445 8.950419 39.483872 3.179524 7.531493 49.938614 -32.557350 0.000000 0.000000 0.000000 11.349811 0.150618 -1.382219 -1.160771 -12.130290 24.421637 4.201409 -0.784826 -1.834455 -81.252327 -37.431172 -53.766624 -95.154350 -30.791008 -89.628119 0.000000 0.000000 0.000000 9.235412 -0.175125 -1.574377 -0.885922 21.990704 -7.907715 4.953785 -2.502408 3.725445 -72.615955 9.790124 20.721546 134.164491 41.605121 -131.368402 0.000000 0.000000 0.000000 
-28.249891 108.366798 -19.797802 0.000000 0.000000 0.000000 -169.831411 -44.044984 -160.070497 -131.764471 -14.702547 3.471571 82.385626 -0.792808 -26.694573 48.456094 -16.677391 -20.988973 -10.984393 -0.553999 3.902888 0.000000 0.000000 0.000000 -172.106150 -37.659997 -163.260154 -23.153054 39.298651 3.418726 38.251546 7.067633 -3.371814 0.782280 16.395183 -0.802447 -7.901322 1.357203 3.768597 0.000000 0.000000 0.000000 -170.112582 -43.139256 -160.779265 20.775752 4.400935 0.511809 8.457367 0.405666 -1.196590 0.150778 -2.951037 0.948274 0.000000 0.000000 0.000000 12.345557 0.479071 -2.189409 10.410942 39.640471 1.938920 6.960247 50.406021 -32.888966 0.000000 0.000000 0.000000 11.645741 0.086513 -1.586309 -0.805124 -12.075176 28.151492 4.457176 -1.319490 -1.957015 -85.343951 -34.616683 -55.245681 -95.081957 -32.356771 -89.672768 0.000000 0.000000 0.000000 9.339070 -0.258471 -1.789816 0.052190 22.342300 -11.157238 5.307760 -2.702782 3.871399 -76.662248 6.750792 17.445794 136.238232 41.938731 -133.732153 0.000000 0.000000 0.000000 
-28.656263 108.408180 -20.064777 0.000000 0.000000 0.000000 -169.680791 -43.072372 -158.594971 -132.011957 -15.141812 2.673619 81.381315 -0.031915 -27.414180 46.022330 -14.704265 -21.460261 -10.230685 -0.413524 3.602396 0.000000 0.000000 0.000000 -171.988576 -37.574189 -162.073764 -22.185684 40.315144 2.167516 39.344891 7.076222 -2.701193 -1.261114 16.038872 -0.315365 -6.936291 1.490124 3.892000 0.000000 0.000000 0.000000 -169.659577 -42.599415 -158.960973 21.247935 4.322166 0.312810 8.443981 0.215279 -1.388708 0.094161 -3.132275 0.977882 0.000000 0.000000 0.000000 12.458042 0.346313 -2.398780 11.765740 39.713882 0.739822 6.284496 50.645347 -32.995100 0.000000 0.000000 0.000000 11.780178 -0.037015 -1.775989 -0.489926 -12.096169 31.253658 4.284593 -1.700995 -2.138481 -87.871511 -32.924845 -55.859507 -95.212946 -34.061682 -90.062676 0.000000 0.000000 0.000000 9.327485 -0.360715 -1.953866 0.785661 22.604221 -13.552551 5.686706 -2.868570 4.208963 -79.889922 3.572697 13.842920 138.275581 42.260231 -136.008628 0.000000 0.000000 0.000000 
-28.781982 108.069862 -19.763256 0.000000 0.000000 0.000000 -169.922498 -42.602656 -157.495761 -131.851980 -15.941520 2.199374 80.617877 -0.088309 -28.215231 44.387706 -13.756770 -22.124812 -11.730290 -0.565464 3.858440 0.000000 0.000000 0.000000 -171.927691 -38.501708 -160.891021 -22.637545 41.308434 1.355709 41.205370 7.217074 -2.148319 -3.712193 15.442236 0.437993 -5.448543 1.722656 4.098585 0.000000 0.000000 0.000000 -169.388596 -42.921643 -157.297522 21.676881 4.080166 0.014799 8.279567 -0.038409 -1.553486 0.119726 -3.304077 1.130630 0.000000 0.000000 0.000000 12.435463 0.178209 -2.558429 12.822785 39.735005 -0.256253 5.612108 50.719462 -32.911994 0.000000 0.000000 0.000000 11.768562 -0.220975 -1.963799 -0.205994 -12.168137 33.667065 3.647490 -2.044088 -2.207592 -89.134003 -32.280680 -55.828228 -95.367247 -35.859234 -90.596380 0.000000 0.000000 0.000000 9.223825 -0.486680 -2.068473 1.267433 22.724864 -14.979971 6.018893 -3.184121 4.474409 -82.475306 0.559944 10.460405 140.213115 42.448062 -138.199602 0.000000 0.000000 0.000000 
